<?xml version='1.0' encoding='utf-8'?>
<svg xmlns="http://www.w3.org/2000/svg" viewBox="0 0 283.51 204.04"> <g fill-rule="evenodd" stroke="#000"> <path d="m34.636 76.393-12.5-52.5 4.2857-23.214 9.2857 17.857 7.1428 56.786-8.2143 1.0714z" fill="#fea"/> <path d="m26.422 0.4998 9.2857 18.214-13.214 5 3.9286-23.214z" fill="#d4aa00"/> <path d="m46.374 75.505 5.068-53.729 11.531-20.598 3.0422 19.896-11.52 56.062-8.1219-1.6302z" fill="#c6e9af"/> <path d="m63.03 1.0083 2.9272 20.234-14.12 0.4794 11.193-20.714z" fill="#5aa02c"/> <path d="m56.516 71.811 20.244-50.027 16.948-16.433-2.7836 19.934-27.094 50.414-7.3147-3.8881z" fill="#80ffe6"/> <path d="m93.812 5.2055-2.9906 20.225-13.666-3.5848 16.657-16.64z" fill="#00d4aa"/> </g> <g fill-rule="evenodd"> <g transform="matrix(.89417 -.44772 .44772 .89417 -68.886 156.94)" stroke="#000"> <path d="m208.75-16.317 35.355 4.0406 40.406-6.0609v90.409l-77.277 2.0203 1.5152-90.409z" fill="#00d455"/> <path d="m284.51-18.842s1.7319-0.78467 2.7293-2.3774c0.99747-1.5928 1.8164-6.7139 1.8164-6.7139l0.7397 93.138s-0.81705 3.7457-2.1376 5.1987c-1.3177 1.4498-3.1478 1.1633-3.1478 1.1633v-90.409z" fill="#052"/> <path d="m288.3-27.704-34.464 1.9643-41.071-9.6429 0.3571 19.107 30.714 3.3929 40.643-6.2857 3.4059-3.3034 0.4156-5.2323z" fill="#afc"/> <path d="m288.21-26.186-34.464 2.4107-38.214-7.7679s2.5385 3.701 2.5893 6.1607c0.050751 2.4597-3.3928 9.1072-3.3928 9.1072l29.286 4.1071 40.089-6.6071 3.8393-3.6607 0.2679-3.75z" fill="#d5ffe6"/> </g> <g stroke-linecap="round" stroke-linejoin="round"> <g stroke-width="2"> <path d="m116.44 63.772c-30.219 0-99.031 6.0625-99.031 6.0625-4.8266 0-9.163 1.9442-12.312 5.0938-3.1495 3.1495-5.0938 7.5171-5.0938 12.344v70.876c0 4.8266 1.9442 9.163 5.0938 12.312 3.1495 3.1495 7.4859 5.0938 12.312 5.0938 0 0 3.4651-0.30032 5.0625-0.4375 2.5724-14.258 15.036-25.094 30.031-25.094 13.454 0 24.872 8.7227 28.938 20.812 13.188-0.7717 25.884-1.3438 35-1.3438 8.3839 0 19.785 0.4819 31.812 1.1562 0.78763-16.156 14.15-29 30.5-29 16.856 0 30.531 13.676 30.531 30.531 0 0.95844-0.038483 1.9078-0.125 2.8438 2.4012 0.20435 6.2812 0.53125 6.2812 0.53125 4.8266 0 9.163-1.9442 12.312-5.0938 1.4152-1.4152 2.576-3.0749 3.4375-4.9062h15.25v-10.344h-13.594v-67.938c0-4.8266-1.9442-9.1942-5.0938-12.344-3.1495-3.1495-7.4859-5.0938-12.312-5.0938 0 0-68.781-6.0625-99-6.0625z" fill="#fc0"/> <g fill="#540"> <path d="m51.701 156.16c-13.209 0-23.938 10.729-23.938 23.938s10.729 23.938 23.938 23.938 23.906-10.729 23.906-23.938-10.698-23.938-23.906-23.938zm0 7.6875c8.97 0 16.25 7.28 16.25 16.25s-7.28 16.25-16.25 16.25-16.25-7.28-16.25-16.25 7.28-16.25 16.25-16.25z"/> <path d="m179.65 148.41c-13.209 0-23.938 10.729-23.938 23.938s10.729 23.938 23.938 23.938 23.906-10.729 23.906-23.938-10.698-23.938-23.906-23.938zm0 7.6875c8.97 0 16.25 7.28 16.25 16.25s-7.28 16.25-16.25 16.25-16.25-7.28-16.25-16.25 7.28-16.25 16.25-16.25z"/> </g> </g> <g fill="#b3b3b3" stroke="#fff"> <rect x="4.3707" y="80.295" width="25.535" height="45.892" rx="10.673" ry="10.673" stroke-width="2.179"/> <g stroke-width="2"> <rect x="121.78" y="71.991" width="40.357" height="40.357" rx="10.673" ry="10.673"/> <rect x="178.03" y="78.241" width="40.357" height="40.357" rx="10.673" ry="10.673"/> <rect x="69.817" y="71.456" width="40.357" height="40.357" rx="10.673" ry="10.673"/> </g> <rect x="38.154" y="77.114" width="25.112" height="66.541" rx="8.3318" ry="8.3318" stroke-width="2.602"/> </g> <g stroke-width="2"> <path d="m14.281 153.78a4.6429 4.6429 0 1 1-9.2857 0 4.6429 4.6429 0 1 1 9.2857 0z" fill="#ff0" stroke="#f00"/> <path d="m270.7 141.27c-3.9785 0-7.2206 3.115-7.4688 7.0312-2.929 0.36075-5.3392 2.3901-6.2188 5.125-0.074829-0.002197-0.14343 0-0.21875 0-4.14 0-7.5 3.36-7.5 7.5s3.36 7.5 7.5 7.5c0.11865 0 0.22641-0.025787 0.34375-0.03125 1.2015 2.5408 3.7858 4.3125 6.7812 4.3125 3.2938 0 6.0868-2.1393 7.0938-5.0938 1.1544 0.7254 2.5369 1.1562 4 1.1562 4.14 0 7.5-3.36 7.5-7.5 0-3.7309-2.7433-6.8305-6.3125-7.4062 1.2413-1.3383 2-3.1258 2-5.0938 0-4.14-3.36-7.5-7.5-7.5z" fill="#e6e6e6" stroke="#1a1a1a"/> </g> </g> </g> </svg>